# xmcd
#
# Track frame offsets:
# 183
# 18378
# 39558
# 63188
# 81023
# 98705
# 113480
# 135720
# 153055
# 178428
# 206680
# 232335
# 262858
# 286550
#
# Disc length: 4046 seconds
#
#
# Revision: 63
# Processed by: cddbd v1.5.2PL0 Copyright (c) Steve Scherf et al.
# Submitted via: FreeRIP 2.51 
#
DISCID=b30fcc0e
DTITLE=Various Artist - The very best of Elton John Vol. 01
DYEAR=1990
DGENRE=Pop
TTITLE0=/ Your song
TTITLE1=Elton John - Rocket man (i think it's going to be a long, long time)
TTITLE2=Elton John - Honky cat
TTITLE3=Elton John - Crocodile rock
TTITLE4=Elton John - Daniel
TTITLE5=Elton John - Goodbye yellow brick road
TTITLE6=Elton John - Saturday night's alright for fighting
TTITLE7=Elton John - Candle in the wind
TTITLE8=Elton John - Don't let the sun go down on me
TTITLE9=Elton John - Lucy in the sky with diamonds
TTITLE10=Elton John - Philadelphia freedom
TTITLE11=Elton John - Someone saved my life tonight
TTITLE12=Elton John - Pinball wizard
TTITLE13=Elton John - The bitch is back
EXTD=Polygram
EXTT0=
EXTT1=
EXTT2=
EXTT3=
EXTT4=
EXTT5=
EXTT6=
EXTT7=
EXTT8=
EXTT9=
EXTT10=
EXTT11=
EXTT12=
EXTT13=
PLAYORDER=
